HIERARCHY
ROOT Hips
{
  OFFSET 5.80788e-005 67.184 3.4734
  CHANNELS 6 Xposition Yposition Zposition Zrotation Xrotation Yrotation
  JOINT Chest
  {
    OFFSET 0 8.7983 -4.7612
    CHANNELS 6 Xposition Yposition Zposition Zrotation Xrotation Yrotation
    JOINT Chest2
    {
      OFFSET 0 8.0291 0.4195
      CHANNELS 6 Xposition Yposition Zposition Zrotation Xrotation Yrotation
      JOINT Chest3
      {
        OFFSET 0 9.9351 -2.2114
        CHANNELS 6 Xposition Yposition Zposition Zrotation Xrotation Yrotation
        JOINT Neck
        {
          OFFSET 0 22.3885 -0.4656
          CHANNELS 6 Xposition Yposition Zposition Zrotation Xrotation Yrotation
          JOINT Head
          {
            OFFSET -0.0001 12.643 3.4389
            CHANNELS 6 Xposition Yposition Zposition Zrotation Xrotation Yrotation
            End Site
            {
              OFFSET 0.0001 17.6655 0.5274
            }
          }
        }
        JOINT LeftCollar
        {
          OFFSET 2.2603 21.606 7.4023
          CHANNELS 6 Xposition Yposition Zposition Zrotation Xrotation Yrotation
          JOINT LeftShoulder
          {
            OFFSET 13.5163 -1.1332 -5.0146
            CHANNELS 6 Xposition Yposition Zposition Zrotation Xrotation Yrotation
            JOINT LeftElbow
            {
              OFFSET -0.0995 -28.05 -0.2431
              CHANNELS 6 Xposition Yposition Zposition Zrotation Xrotation Yrotation
              JOINT LeftWrist
              {
                OFFSET 0.0679 -23.3996 -0.1402
                CHANNELS 6 Xposition Yposition Zposition Zrotation Xrotation Yrotation
                JOINT LeftFinger1
                {
                  OFFSET 0.7932 -9.069 2.5189
                  CHANNELS 6 Xposition Yposition Zposition Zrotation Xrotation Yrotation
                  JOINT LeftFinger11
                  {
                    OFFSET -0.8272 -3.3923 0.5977
                    CHANNELS 6 Xposition Yposition Zposition Zrotation Xrotation Yrotation
                    JOINT LeftFinger12
                    {
                      OFFSET -0.5649 -2.3158 0.4082
                      CHANNELS 6 Xposition Yposition Zposition Zrotation Xrotation Yrotation
                      End Site
                      {
                        OFFSET -0.4919 -1.6479 0.2673
                      }
                    }
                  }
                }
                JOINT LeftFinger2
                {
                  OFFSET 0.9159 -9.2044 0.2193
                  CHANNELS 6 Xposition Yposition Zposition Zrotation Xrotation Yrotation
                  JOINT LeftFinger21
                  {
                    OFFSET 0.0117 -4.1944 -0.0248
                    CHANNELS 6 Xposition Yposition Zposition Zrotation Xrotation Yrotation
                    JOINT LeftFinger22
                    {
                      OFFSET 0.0071 -2.3249 -0.0142
                      CHANNELS 6 Xposition Yposition Zposition Zrotation Xrotation Yrotation
                      End Site
                      {
                        OFFSET -0.1475 -2.0882 0.0028
                      }
                    }
                  }
                }
                JOINT LeftFinger3
                {
                  OFFSET 0.6113 -8.7231 -2.0637
                  CHANNELS 6 Xposition Yposition Zposition Zrotation Xrotation Yrotation
                  JOINT LeftFinger31
                  {
                    OFFSET -0.1927 -3.8059 -0.2383
                    CHANNELS 6 Xposition Yposition Zposition Zrotation Xrotation Yrotation
                    JOINT LeftFinger32
                    {
                      OFFSET -0.1091 -2.1688 -0.1362
                      CHANNELS 6 Xposition Yposition Zposition Zrotation Xrotation Yrotation
                      End Site
                      {
                        OFFSET -0.2358 -1.9176 -0.0906
                      }
                    }
                  }
                }
                JOINT LeftFinger4
                {
                  OFFSET -0.6151 -8.0947 -3.5641
                  CHANNELS 6 Xposition Yposition Zposition Zrotation Xrotation Yrotation
                  JOINT LeftFinger41
                  {
                    OFFSET -0.4882 -2.341 -0.6462
                    CHANNELS 6 Xposition Yposition Zposition Zrotation Xrotation Yrotation
                    JOINT LeftFinger42
                    {
                      OFFSET -0.3575 -1.7167 -0.4742
                      CHANNELS 6 Xposition Yposition Zposition Zrotation Xrotation Yrotation
                      End Site
                      {
                        OFFSET -0.4187 -1.5237 -0.3496
                      }
                    }
                  }
                }
                JOINT LeftFinger0
                {
                  OFFSET -1.42 -1.8761 1.4223
                  CHANNELS 6 Xposition Yposition Zposition Zrotation Xrotation Yrotation
                  JOINT LeftFinger01
                  {
                    OFFSET -1.1471 -3.4929 2.6334
                    CHANNELS 6 Xposition Yposition Zposition Zrotation Xrotation Yrotation
                    JOINT LeftFinger02
                    {
                      OFFSET -0.823 -2.3 1.6571
                      CHANNELS 6 Xposition Yposition Zposition Zrotation Xrotation Yrotation
                      End Site
                      {
                        OFFSET -0.5822 -1.6914 1.1582
                      }
                    }
                  }
                }
              }
            }
          }
        }
        JOINT RightCollar
        {
          OFFSET -2.2603 21.606 7.4023
          CHANNELS 6 Xposition Yposition Zposition Zrotation Xrotation Yrotation
          JOINT RightShoulder
          {
            OFFSET -13.5187 -1.1334 -5.0155
            CHANNELS 6 Xposition Yposition Zposition Zrotation Xrotation Yrotation
            JOINT RightElbow
            {
              OFFSET 0.0994 -28.0499 -0.2431
              CHANNELS 6 Xposition Yposition Zposition Zrotation Xrotation Yrotation
              JOINT RightWrist
              {
                OFFSET -0.0679 -23.3996 -0.1402
                CHANNELS 6 Xposition Yposition Zposition Zrotation Xrotation Yrotation
                JOINT RightFinger1
                {
                  OFFSET -0.7932 -9.0691 2.5189
                  CHANNELS 6 Xposition Yposition Zposition Zrotation Xrotation Yrotation
                  JOINT RightFinger11
                  {
                    OFFSET 0.8272 -3.3923 0.5977
                    CHANNELS 6 Xposition Yposition Zposition Zrotation Xrotation Yrotation
                    JOINT RightFinger12
                    {
                      OFFSET 0.565 -2.3158 0.4082
                      CHANNELS 6 Xposition Yposition Zposition Zrotation Xrotation Yrotation
                      End Site
                      {
                        OFFSET 0.4919 -1.6479 0.2673
                      }
                    }
                  }
                }
                JOINT RightFinger2
                {
                  OFFSET -0.916 -9.2044 0.2193
                  CHANNELS 6 Xposition Yposition Zposition Zrotation Xrotation Yrotation
                  JOINT RightFinger21
                  {
                    OFFSET -0.0117 -4.1944 -0.0248
                    CHANNELS 6 Xposition Yposition Zposition Zrotation Xrotation Yrotation
                    JOINT RightFinger22
                    {
                      OFFSET -0.0071 -2.3249 -0.0142
                      CHANNELS 6 Xposition Yposition Zposition Zrotation Xrotation Yrotation
                      End Site
                      {
                        OFFSET 0.1475 -2.0882 0.0028
                      }
                    }
                  }
                }
                JOINT RightFinger3
                {
                  OFFSET -0.6113 -8.7231 -2.0637
                  CHANNELS 6 Xposition Yposition Zposition Zrotation Xrotation Yrotation
                  JOINT RightFinger31
                  {
                    OFFSET 0.1927 -3.8059 -0.2383
                    CHANNELS 6 Xposition Yposition Zposition Zrotation Xrotation Yrotation
                    JOINT RightFinger32
                    {
                      OFFSET 0.1091 -2.1688 -0.1362
                      CHANNELS 6 Xposition Yposition Zposition Zrotation Xrotation Yrotation
                      End Site
                      {
                        OFFSET 0.2358 -1.9176 -0.0906
                      }
                    }
                  }
                }
                JOINT RightFinger4
                {
                  OFFSET 0.6151 -8.0947 -3.564
                  CHANNELS 6 Xposition Yposition Zposition Zrotation Xrotation Yrotation
                  JOINT RightFinger41
                  {
                    OFFSET 0.4882 -2.341 -0.6462
                    CHANNELS 6 Xposition Yposition Zposition Zrotation Xrotation Yrotation
                    JOINT RightFinger42
                    {
                      OFFSET 0.3574 -1.7166 -0.4742
                      CHANNELS 6 Xposition Yposition Zposition Zrotation Xrotation Yrotation
                      End Site
                      {
                        OFFSET 0.4187 -1.5237 -0.3496
                      }
                    }
                  }
                }
                JOINT RightFinger0
                {
                  OFFSET 1.4199 -1.8761 1.4221
                  CHANNELS 6 Xposition Yposition Zposition Zrotation Xrotation Yrotation
                  JOINT RightFinger01
                  {
                    OFFSET 1.1472 -3.4929 2.6336
                    CHANNELS 6 Xposition Yposition Zposition Zrotation Xrotation Yrotation
                    JOINT RightFinger02
                    {
                      OFFSET 0.8229 -2.3 1.6571
                      CHANNELS 6 Xposition Yposition Zposition Zrotation Xrotation Yrotation
                      End Site
                      {
                        OFFSET 0.5822 -1.6914 1.1582
                      }
                    }
                  }
                }
              }
            }
          }
        }
      }
    }
  }
  JOINT RightHip
  {
    OFFSET -9.412 3.9771 -0.7758
    CHANNELS 6 Xposition Yposition Zposition Zrotation Xrotation Yrotation
    JOINT RightKnee
    {
      OFFSET -0.7531 -40.938 0
      CHANNELS 6 Xposition Yposition Zposition Zrotation Xrotation Yrotation
      JOINT RightAnkle
      {
        OFFSET 0 -40.1986 0
        CHANNELS 6 Xposition Yposition Zposition Zrotation Xrotation Yrotation
        JOINT RightToe
        {
          OFFSET 0 -4.4182 9.239
          CHANNELS 6 Xposition Yposition Zposition Zrotation Xrotation Yrotation
          End Site
          {
            OFFSET 0 0 6.1981
          }
        }
      }
    }
  }
  JOINT LeftHip
  {
    OFFSET 9.4119 3.9773 -0.7758
    CHANNELS 6 Xposition Yposition Zposition Zrotation Xrotation Yrotation
    JOINT LeftKnee
    {
      OFFSET 0.7532 -40.9383 0
      CHANNELS 6 Xposition Yposition Zposition Zrotation Xrotation Yrotation
      JOINT LeftAnkle
      {
        OFFSET 0 -40.1986 0
        CHANNELS 6 Xposition Yposition Zposition Zrotation Xrotation Yrotation
        JOINT LeftToe
        {
          OFFSET 0 -4.4182 9.239
          CHANNELS 6 Xposition Yposition Zposition Zrotation Xrotation Yrotation
          End Site
          {
            OFFSET 0 0 6.1981
          }
        }
      }
    }
  }
}
MOTION
Frames:	4
Frame Time:	0.0333333
5.80788e-005 67.184 3.4734 0 0 -0 0 8.7983 -4.7612 0 0 -0 0 8.0291 0.4195 0 0 -0 0 9.9351 -2.2114 0 0 -0 0 22.3885 -0.4656 0 0 -0 -0.0001 12.643 3.4389 0 0 -0 2.2603 21.606 7.4023 0 0 -12.5014 13.5163 -1.1332 -5.0146 88.1196 14.2451 10.6914 -0.0995 -28.05 -0.2431 -0.00160068 -0.00239207 0.000740045 0.0679 -23.3996 -0.1402 -8.4365e-005 7.00714e-005 -9.52055e-007 0.7932 -9.069 2.5189 9.93923e-017 -1.98785e-016 -1.59028e-015 -0.8272 -3.3923 0.5977 9.93923e-017 -5.96354e-016 -1.59028e-015 -0.5649 -2.3158 0.4082 -9.93923e-017 -5.96354e-016 -1.59028e-015 0.9159 -9.2044 0.2193 9.93923e-017 -1.98785e-016 -1.59028e-015 0.0117 -4.1944 -0.0248 -0.0128176 0.00232552 8.52707e-005 0.0071 -2.3249 -0.0142 9.93923e-017 5.96354e-016 -0 0.6113 -8.7231 -2.0637 9.93923e-017 -1.98785e-016 -1.59028e-015 -0.1927 -3.8059 -0.2383 -0.0160551 0.00299681 0.000857156 -0.1091 -2.1688 -0.1362 -2.48481e-016 0 3.18055e-015 -0.6151 -8.0947 -3.5641 9.93923e-017 -1.98785e-016 -1.59028e-015 -0.4882 -2.341 -0.6462 -0.0125865 0.0031206 0.00282719 -0.3575 -1.7167 -0.4742 0 1.98785e-016 -0 -1.42 -1.8761 1.4223 9.93923e-017 -1.98785e-016 -1.59028e-015 -1.1471 -3.4929 2.6334 9.93923e-017 -5.96354e-016 -1.59028e-015 -0.823 -2.3 1.6571 -9.93923e-017 -5.96354e-016 -1.59028e-015 -2.2603 21.606 7.4023 -0.865644 0.16582 7.03859 -13.5187 -1.1334 -5.0155 -88.0329 10.2057 -10.5567 0.0994 -28.0499 -0.2431 0.0015593 -0.00248883 -0.000788628 -0.0679 -23.3996 -0.1402 7.87605e-005 4.10553e-005 1.24965e-005 -0.7932 -9.0691 2.5189 -3.97569e-016 -7.95139e-016 3.18055e-015 0.8272 -3.3923 0.5977 -1.98785e-016 -3.97569e-016 3.18055e-015 0.565 -2.3158 0.4082 -1.98785e-016 0 3.18055e-015 -0.916 -9.2044 0.2193 -3.97569e-016 -7.95139e-016 3.18055e-015 -0.0117 -4.1944 -0.0248 0.0129473 0.00231697 -8.70038e-005 -0.0071 -2.3249 -0.0142 9.93923e-017 -7.95139e-016 1.59028e-015 -0.6113 -8.7231 -2.0637 -3.97569e-016 -7.95139e-016 3.18055e-015 0.1927 -3.8059 -0.2383 0.0163314 0.00303369 -0.000872333 0.1091 -2.1688 -0.1362 3.97569e-016 7.95139e-016 -3.18055e-015 0.6151 -8.0947 -3.564 -3.97569e-016 -7.95139e-016 3.18055e-015 0.4882 -2.341 -0.6462 0.0145763 0.00367772 -0.00326275 0.3574 -1.7166 -0.4742 9.93923e-017 -3.97569e-016 -0 1.4199 -1.8761 1.4221 -3.97569e-016 -7.95139e-016 3.18055e-015 1.1472 -3.4929 2.6336 -1.98785e-016 -3.97569e-016 3.18055e-015 0.8229 -2.3 1.6571 -1.98785e-016 0 3.18055e-015 -9.412 3.9771 -0.7758 3.42485 1.36937 -0.0640303 -0.7531 -40.938 0 0.000136572 0.69354 0.00145564 1.77636e-015 -40.1986 -1.11022e-016 -3.42573 -2.06297 -0.0607933 8.88178e-016 -4.4182 9.239 -3.19502e-024 0 -1.48106e-024 9.4119 3.9773 -0.7758 -3.42498 1.36123 0.0639712 0.7532 -40.9383 2.22045e-016 -6.769e-005 0.712612 -0.0012277 8.88179e-016 -40.1986 0 3.42582 -2.07388 0.0612819 -8.88178e-016 -4.4182 9.239 2.55305e-023 0 -2.31416e-026 
0.819249 17.1823 22.1092 178.616 -73.0001 -1.01316 1.11022e-016 8.7983 -4.7612 -0.0687102 -4.94938 -0.290606 -2.22045e-016 8.0291 0.4195 -0.163649 -9.89831 -0.590522 1.11022e-016 9.9351 -2.2114 -0.16365 -9.89833 -0.590524 0 22.3885 -0.4656 0.0924702 0.215138 0.106483 -0.0001 12.643 3.4389 -3.65457e-007 0.159126 -3.28208e-007 2.2603 21.606 7.4023 15.3751 -0.695576 -21.2685 13.5163 -1.1332 -5.0146 80.7285 -18.9456 30.5809 -0.0995 -28.05 -0.2431 -21.9744 -50.3719 -21.4693 0.0679 -23.3996 -0.1402 59.6409 -8.02187 6.62027 0.7932 -9.06901 2.5189 -1.17957e-005 -5.91677e-006 -5.21537e-006 -0.8272 -3.3923 0.5977 -3.18055e-015 -1.98785e-016 4.67144e-015 -0.5649 -2.3158 0.4082 7.70709e-032 -5.96354e-016 7.40473e-015 0.9159 -9.20441 0.2193 -1.17957e-005 -5.91677e-006 -5.21537e-006 0.0117 -4.1944 -0.0248 -0.0128197 0.00233011 9.41004e-005 0.0071 -2.3249 -0.0142 -1.59028e-015 1.98785e-016 1.49089e-015 0.6113 -8.72311 -2.0637 -1.17957e-005 -5.91677e-006 -5.21537e-006 -0.1927 -3.8059 -0.2383 -0.0160597 0.00299866 0.000854075 -0.1091 -2.1688 -0.1362 3.18055e-015 1.98785e-016 7.40473e-015 -0.6151 -8.09471 -3.5641 -1.17957e-005 -5.91677e-006 -5.21537e-006 -0.4882 -2.341 -0.6462 -0.0125828 0.00311193 0.00282613 -0.3575 -1.7167 -0.4742 1.59028e-015 -1.98785e-016 2.13694e-015 -1.42 -1.8761 1.4223 -1.17957e-005 -5.91677e-006 -5.21537e-006 -1.1471 -3.4929 2.6334 -3.18055e-015 -1.98785e-016 4.67144e-015 -0.823 -2.3 1.6571 7.70709e-032 -5.96354e-016 7.40473e-015 -2.2603 21.606 7.4023 17.8531 0.0317062 5.39492 -13.5187 -1.1334 -5.0155 -71.7002 -35.2282 1.11607 0.0994 -28.0499 -0.2431 -13.7486 -33.9512 -14.7184 -0.0679 -23.3996 -0.1402 -59.6367 -7.19068 -7.78658 -0.7932 -9.0691 2.5189 -3.18055e-015 9.54166e-015 -7.95139e-016 0.8272 -3.3923 0.5977 -3.18055e-015 1.27222e-014 -2.38542e-015 0.565 -2.3158 0.4082 -3.18055e-015 1.27222e-014 -1.59028e-015 -0.916 -9.2044 0.2193 -3.18055e-015 9.54166e-015 -7.95139e-016 -0.0117 -4.1944 -0.0248 0.0129659 0.0023121 -8.00249e-005 -0.0071 -2.3249 -0.0142 -1.59028e-015 1.59028e-014 -2.38542e-015 -0.6113 -8.7231 -2.0637 -3.18055e-015 9.54166e-015 -7.95139e-016 0.1927 -3.8059 -0.2383 0.0163565 0.00303315 -0.000877225 0.1091 -2.1688 -0.1362 -9.54166e-015 1.59028e-014 1.03368e-014 0.6151 -8.0947 -3.564 -3.18055e-015 9.54166e-015 -7.95139e-016 0.4882 -2.341 -0.6462 0.0145728 0.00367015 -0.00325896 0.3574 -1.7166 -0.4742 1.59028e-015 -1.27222e-014 -0 1.4199 -1.8761 1.4221 -3.18055e-015 9.54166e-015 -7.95139e-016 1.1472 -3.4929 2.6336 -3.18055e-015 1.27222e-014 -2.38542e-015 0.8229 -2.3 1.6571 -3.18055e-015 1.27222e-014 -1.59028e-015 -9.412 3.9771 -0.7758 -26.3976 -53.5963 -43.216 -0.7531 -40.938 7.10543e-015 6.056 49.5047 -3.69407 0 -40.1986 3.55271e-015 -10.8154 47.1783 13.8463 0 -4.4182 9.239 3.18055e-015 -9.54166e-015 2.38542e-015 9.4119 3.9773 -0.7758 25.6252 -53.3136 42.2355 0.7532 -40.9383 0 -6.29997 48.5487 4.12817 0 -40.1986 -3.55271e-015 10.4182 46.4959 -13.5246 0 -4.4182 9.239 3.32372e-006 -3.4803e-006 1.00555e-007 
0.816562 16.7162 21.8854 178.553 -74.866 -1.0969 0 8.7983 -4.7612 -0.0718495 -4.78601 -0.289555 1.11022e-016 8.0291 0.4195 -0.168959 -9.5716 -0.588255 0 9.9351 -2.2114 -0.168959 -9.57161 -0.588255 -2.22045e-016 22.3885 -0.4656 0.132962 0.35936 0.0628859 -0.0001 12.643 3.4389 -6.8289e-008 0.0928751 -9.77081e-008 2.2603 21.606 7.4023 14.7321 0.0965672 -22.3127 13.5163 -1.1332 -5.0146 80.8291 -18.6613 30.635 -0.0995 -28.05 -0.2431 -21.0842 -49.4331 -20.7585 0.0679 -23.3996 -0.1402 59.5069 -8.75436 6.79858 0.7932 -9.069 2.5189 3.18055e-015 0 2.93207e-015 -0.8272 -3.3923 0.5977 1.59028e-015 7.95139e-016 -3.47873e-015 -0.5649 -2.3158 0.4082 1.59028e-015 -3.97569e-016 1.19271e-015 0.9159 -9.2044 0.2193 3.18055e-015 0 2.93207e-015 0.0117 -4.1944 -0.0248 -0.0128483 0.00234546 9.91021e-005 0.0071 -2.3249 -0.0142 4.0377e-006 -5.74009e-006 -5.95935e-006 0.6113 -8.7231 -2.0637 3.18055e-015 0 2.93207e-015 -0.1927 -3.8059 -0.2383 -0.0160703 0.00300487 0.00087271 -0.1091 -2.1688 -0.1362 -0 0 1.49089e-016 -0.6151 -8.0947 -3.5641 3.18055e-015 0 2.93207e-015 -0.4882 -2.341 -0.6462 -0.0125873 0.00311598 0.0028285 -0.3575 -1.7167 -0.4742 -2.42336e-006 -6.69794e-007 2.50728e-006 -1.42 -1.8761 1.4223 3.18055e-015 0 2.93207e-015 -1.1471 -3.4929 2.6334 1.59028e-015 7.95139e-016 -3.47873e-015 -0.823 -2.3 1.6571 1.59028e-015 -3.97569e-016 1.19271e-015 -2.2603 21.606 7.4023 18.3465 0.455312 5.92188 -13.5187 -1.1334 -5.0155 -71.9746 -34.7273 0.91732 0.0994 -28.0499 -0.2431 -13.5897 -33.3476 -14.6336 -0.0679 -23.3996 -0.1402 -59.3639 -7.67846 -7.64172 -0.7932 -9.0691 2.5189 1.59028e-015 0 -1.59028e-015 0.8272 -3.3923 0.5977 1.59028e-015 0 -7.95139e-016 0.565 -2.3158 0.4082 4.77083e-015 0 7.95139e-016 -0.916 -9.2044 0.2193 1.59028e-015 0 -1.59028e-015 -0.0117 -4.1944 -0.0248 0.0129673 0.00231757 -8.55184e-005 -0.0071 -2.3249 -0.0142 0 0 -7.95139e-016 -0.6113 -8.7231 -2.0637 1.59028e-015 0 -1.59028e-015 0.1927 -3.8059 -0.2383 0.0163139 0.00302518 -0.000869427 0.1091 -2.1688 -0.1362 -1.59028e-015 3.18055e-015 -1.59028e-015 0.6151 -8.0947 -3.564 1.59028e-015 0 -1.59028e-015 0.4882 -2.341 -0.6462 0.0145739 0.00368146 -0.00326001 0.3574 -1.7166 -0.4742 1.31838e-006 3.92626e-006 1.03248e-006 1.4199 -1.8761 1.4221 1.59028e-015 0 -1.59028e-015 1.1472 -3.4929 2.6336 1.59028e-015 0 -7.95139e-016 0.8229 -2.3 1.6571 4.77083e-015 0 7.95139e-016 -9.412 3.9771 -0.7758 -24.2803 -51.6763 -40.4217 -0.7531 -40.938 7.10543e-015 6.13206 48.8614 -3.69913 3.55271e-015 -40.1986 3.55271e-015 -9.79988 47.3069 12.8568 0 -4.4182 9.239 -1.30585e-006 4.34701e-007 9.9819e-007 9.4119 3.9773 -0.7758 23.5017 -51.3237 39.4954 0.7532 -40.9383 -3.55271e-015 -6.31628 47.8046 4.08446 3.55271e-015 -40.1986 0 9.45611 46.6716 -12.5652 0 -4.4182 9.239 -2.28253e-006 4.73357e-008 -3.4145e-007 
0.813961 16.2508 21.653 178.468 -76.74 -1.20172 0 8.7983 -4.7612 -0.0749741 -4.6215 -0.288409 0 8.0291 0.4195 -0.17423 -9.24255 -0.585781 1.11022e-016 9.9351 -2.2114 -0.174231 -9.24259 -0.585783 0 22.3885 -0.4656 0.173574 0.503576 0.0191726 -0.0001 12.643 3.4389 -1.57471e-008 0.0266172 6.27385e-008 2.2603 21.606 7.4023 14.1019 0.902306 -23.3507 13.5163 -1.1332 -5.0146 80.9248 -18.3772 30.687 -0.0995 -28.05 -0.2431 -20.2239 -48.4877 -20.0833 0.0679 -23.3996 -0.1402 59.3748 -9.48783 6.97567 0.793199 -9.06901 2.5189 3.18055e-015 7.95139e-016 -4.47266e-016 -0.827199 -3.3923 0.5977 1.59028e-015 1.59028e-015 -3.8266e-015 -0.5649 -2.3158 0.4082 1.59028e-015 1.59028e-015 -8.44835e-016 0.915899 -9.20441 0.2193 3.18055e-015 7.95139e-016 -4.47266e-016 0.0117 -4.1944 -0.0248 -0.0128344 0.00233148 8.66973e-005 0.0071 -2.3249 -0.0142 -1.59028e-015 -1.98785e-016 8.94531e-016 0.6113 -8.72311 -2.0637 3.18055e-015 7.95139e-016 -4.47266e-016 -0.1927 -3.8059 -0.2383 -0.0160698 0.00300027 0.000856763 -0.1091 -2.1688 -0.1362 2.49263e-006 -6.83856e-006 -8.57306e-007 -0.6151 -8.09471 -3.5641 3.18055e-015 7.95139e-016 -4.47266e-016 -0.4882 -2.341 -0.6462 -0.0125891 0.00311694 0.0028273 -0.3575 -1.7167 -0.4742 1.59028e-015 -1.31198e-014 4.12478e-015 -1.42 -1.8761 1.4223 3.18055e-015 7.95139e-016 -4.47266e-016 -1.1471 -3.4929 2.6334 1.59028e-015 1.59028e-015 -3.8266e-015 -0.822999 -2.3 1.6571 1.59028e-015 1.59028e-015 -8.44835e-016 -2.2603 21.606 7.4023 18.8366 0.883739 6.44567 -13.5187 -1.1334 -5.0155 -72.2391 -34.2203 0.726101 0.0994 -28.0499 -0.2431 -13.4388 -32.7486 -14.5528 -0.0679 -23.3996 -0.1402 -59.0893 -8.16571 -7.49424 -0.7932 -9.06911 2.5189 -1.59028e-015 0 -7.95139e-016 0.8272 -3.3923 0.5977 1.59028e-015 -6.36111e-015 -7.95139e-016 0.565 -2.3158 0.4082 -8.82781e-032 -6.36111e-015 -7.95139e-016 -0.916 -9.20441 0.2193 -1.59028e-015 0 -7.95139e-016 -0.0117 -4.1944 -0.0248 0.012935 0.00231017 -7.96876e-005 -0.0071 -2.3249 -0.0142 3.18055e-015 3.18055e-015 -2.38542e-015 -0.6113 -8.72311 -2.0637 -1.59028e-015 0 -7.95139e-016 0.1927 -3.8059 -0.2383 0.016325 0.00302451 -0.000863987 0.1091 -2.1688 -0.1362 -6.36111e-015 3.18055e-015 7.15625e-015 0.6151 -8.0947 -3.564 -1.59028e-015 0 -7.95139e-016 0.4882 -2.341 -0.6462 0.0145645 0.00367781 -0.00324932 0.3574 -1.7166 -0.4742 -0 -3.18055e-015 -0 1.4199 -1.8761 1.4221 -1.59028e-015 0 -7.95139e-016 1.1472 -3.4929 2.6336 1.59028e-015 -6.36111e-015 -7.95139e-016 0.8229 -2.3 1.6571 -8.82781e-032 -6.36111e-015 -7.95139e-016 -9.412 3.9771 -0.7758 -22.3902 -49.6769 -37.8388 -0.7531 -40.938 -3.55271e-015 6.21637 48.2177 -3.70328 0 -40.1986 0 -8.77873 47.4236 11.8612 0 -4.4182 9.239 -8.82781e-031 -1.27222e-014 -3.97569e-015 9.4119 3.9773 -0.7758 21.5987 -49.2581 36.9623 0.7532 -40.9383 -7.10543e-015 -6.33415 47.0602 4.04114 0 -40.1986 -3.55271e-015 8.48623 46.8359 -11.5977 0 -4.4182 9.239 -2.14687e-014 -1.39069e-008 9.54166e-015 
